# xmcd
#
# Track frame offsets:
#	150
#	17072
#	44667
#	79560
#
# Disc length: 1440 seconds
#
# Revision: 1
# Processed by: cddbd v1.5.2PL0 Copyright (c) Steve Scherf et al.
# Submitted via: audiograbber 1.83.01
#
DISCID=27059e04
DTITLE=Jam and Spoon - Cynical Heart (Maxi)
DYEAR=2003
DGENRE=Pop
TTITLE0=Cynical Heart (Radio Mix)
TTITLE1=Cynical Heart (Extended Radio Mix)
TTITLE2=Cynical Heart (Cet Merlin Mix)
TTITLE3=Show me your strength l. g. (Bonus Track)
EXTD=
EXTT0=
EXTT1=
EXTT2=
EXTT3=
PLAYORDER=
